<svg width="29" height="35" viewBox="0 0 29 35" fill="none" xmlns="http://www.w3.org/2000/svg">
<path d="M6.20318 34C3.99404 34 2.20318 32.2091 2.20318 30V5.30867C2.20318 3.09953 3.99404 1.30867 6.20318 1.30867H22.2032C24.4123 1.30867 26.2032 3.09953 26.2032 5.30867V30C26.2032 32.2091 24.4123 34 22.2032 34H6.20318Z" stroke="white" stroke-width="2"/>
<path d="M7.04646 28.1543C7.04646 27.135 7.87279 26.3087 8.89212 26.3087H19.5142C20.5336 26.3087 21.3599 27.135 21.3599 28.1543C21.3599 29.1737 20.5336 30 19.5142 30H8.89212C7.87279 30 7.04646 29.1737 7.04646 28.1543Z" stroke="white" stroke-width="2"/>
</svg>
