<svg width="69" height="57" viewBox="0 0 69 57" fill="none" xmlns="http://www.w3.org/2000/svg">
<path d="M30.8489 4.11433C14.5916 4.11433 3.32715 17.1203 3.32715 23.6236C3.32715 30.1257 6.57849 35.003 13.0818 35.003C19.5845 35.003 22.8358 36.6284 22.8358 41.5057C22.8358 48.009 27.7131 52.8857 34.2152 52.8857C55.3498 52.8857 65.1038 41.5063 65.1038 30.1257C65.1038 10.617 50.3576 4.11433 30.8489 4.11433ZM26.5097 10.617C27.0477 10.6104 27.5817 10.7106 28.0806 10.9119C28.5796 11.1132 29.0336 11.4115 29.4164 11.7896C29.7992 12.1677 30.1031 12.6181 30.3105 13.1145C30.518 13.6109 30.6248 14.1436 30.6248 14.6817C30.6248 15.2197 30.518 15.7524 30.3105 16.2488C30.1031 16.7452 29.7992 17.1956 29.4164 17.5737C29.0336 17.9518 28.5796 18.2501 28.0806 18.4514C27.5817 18.6527 27.0477 18.7529 26.5097 18.7463C25.4404 18.7331 24.4193 18.2991 23.6678 17.5382C22.9163 16.7774 22.4949 15.7511 22.4949 14.6817C22.4949 13.6122 22.9163 12.5859 23.6678 11.8251C24.4193 11.0642 25.4404 10.6302 26.5097 10.617ZM39.5157 10.617C40.0537 10.6104 40.5876 10.7106 41.0866 10.9119C41.5856 11.1132 42.0396 11.4115 42.4224 11.7896C42.8052 12.1677 43.1091 12.6181 43.3165 13.1145C43.5239 13.6109 43.6307 14.1436 43.6307 14.6817C43.6307 15.2197 43.5239 15.7524 43.3165 16.2488C43.1091 16.7452 42.8052 17.1956 42.4224 17.5737C42.0396 17.9518 41.5856 18.2501 41.0866 18.4514C40.5876 18.6527 40.0537 18.7529 39.5157 18.7463C38.4464 18.7331 37.4253 18.2991 36.6738 17.5382C35.9223 16.7774 35.5008 15.7511 35.5008 14.6817C35.5008 13.6122 35.9223 12.5859 36.6738 11.8251C37.4253 11.0642 38.4464 10.6302 39.5157 10.617ZM51.2849 17.1203C51.8228 17.1137 52.3567 17.2139 52.8556 17.4152C53.3544 17.6164 53.8084 17.9147 54.1911 18.2928C54.5739 18.6708 54.8777 19.1211 55.0851 19.6174C55.2925 20.1138 55.3993 20.6464 55.3993 21.1843C55.3993 21.7223 55.2925 22.2549 55.0851 22.7513C54.8777 23.2476 54.5739 23.6979 54.1911 24.0759C53.8084 24.4539 53.3544 24.7522 52.8556 24.9535C52.3567 25.1548 51.8228 25.255 51.2849 25.2484C50.2157 25.2352 49.1948 24.8012 48.4434 24.0405C47.692 23.2798 47.2707 22.2536 47.2707 21.1843C47.2707 20.1151 47.692 19.0889 48.4434 18.3282C49.1948 17.5675 50.2157 17.1335 51.2849 17.1203ZM15.1291 17.9006C15.6688 17.8912 16.205 17.9893 16.7063 18.1893C17.2077 18.3894 17.6641 18.6873 18.0491 19.0656C18.4341 19.4439 18.7399 19.8952 18.9487 20.3929C19.1574 20.8907 19.2649 21.4251 19.2649 21.9649C19.2649 22.5047 19.1574 23.039 18.9487 23.5368C18.7399 24.0346 18.4341 24.4858 18.0491 24.8642C17.6641 25.2425 17.2077 25.5404 16.7063 25.7404C16.205 25.9405 15.6688 26.0386 15.1291 26.0292C14.0634 26.0106 13.0477 25.5743 12.3007 24.8141C11.5536 24.0539 11.135 23.0307 11.135 21.9649C11.135 20.8991 11.5536 19.8759 12.3007 19.1157C13.0477 18.3555 14.0634 17.9191 15.1291 17.9006ZM36.6869 36.6284C37.9804 36.6284 39.221 37.1422 40.1357 38.0569C41.0504 38.9716 41.5642 40.2121 41.5642 41.5057C41.5642 44.1992 38.1448 46.383 35.4514 46.383C34.1578 46.383 32.9172 45.8691 32.0026 44.9545C31.0879 44.0398 30.574 42.7992 30.574 41.5057C30.574 38.8122 33.9934 36.6284 36.6869 36.6284Z" stroke="white" stroke-width="1.86156"/>
</svg>
