<svg width="61" height="37" viewBox="0 0 61 37" fill="none" xmlns="http://www.w3.org/2000/svg">
<path d="M2.36318 6.30867C2.36318 4.09953 4.15404 2.30867 6.36318 2.30867H54.0432C56.2523 2.30867 58.0432 4.09953 58.0432 6.30867V22.3087C58.0432 24.5178 56.2523 26.3087 54.0432 26.3087H6.36318C4.15404 26.3087 2.36318 24.5178 2.36318 22.3087V6.30867Z" stroke="white" stroke-width="2"/>
<path d="M23.0465 33.1543C23.0465 32.135 23.8728 31.3087 24.8921 31.3087H35.5142C36.5336 31.3087 37.3599 32.135 37.3599 33.1543C37.3599 34.1737 36.5336 35 35.5142 35H24.8921C23.8728 35 23.0465 34.1737 23.0465 33.1543Z" stroke="white" stroke-width="2"/>
</svg>
