<svg width="92" height="63" viewBox="0 0 92 63" fill="none" xmlns="http://www.w3.org/2000/svg">
<path d="M2.66 8C2.66 5.79086 4.45086 4 6.66 4H22.66C24.8691 4 26.66 5.79086 26.66 8V24C26.66 26.2091 24.8691 28 22.66 28H6.66C4.45087 28 2.66 26.2091 2.66 24V8Z" stroke="white" stroke-width="2"/>
<path d="M33.66 8C33.66 5.79086 35.4509 4 37.66 4H53.66C55.8691 4 57.66 5.79086 57.66 8V24C57.66 26.2091 55.8691 28 53.66 28H37.66C35.4509 28 33.66 26.2091 33.66 24V8Z" stroke="white" stroke-width="2"/>
<path d="M64.66 8C64.66 5.79086 66.4509 4 68.66 4H84.66C86.8691 4 88.66 5.79086 88.66 8V24C88.66 26.2091 86.8691 28 84.66 28H68.66C66.4509 28 64.66 26.2091 64.66 24V8Z" stroke="white" stroke-width="2"/>
<path d="M2.66 39C2.66 36.7909 4.45086 35 6.66 35H22.66C24.8691 35 26.66 36.7909 26.66 39V55C26.66 57.2091 24.8691 59 22.66 59H6.66C4.45087 59 2.66 57.2091 2.66 55V39Z" stroke="white" stroke-width="2"/>
<path d="M33.66 39C33.66 36.7909 35.4509 35 37.66 35H85.34C87.5491 35 89.34 36.7909 89.34 39V55C89.34 57.2091 87.5491 59 85.34 59H37.66C35.4509 59 33.66 57.2091 33.66 55V39Z" stroke="white" stroke-width="2"/>
</svg>
