<svg width="67" height="67" viewBox="0 0 67 67" fill="none" xmlns="http://www.w3.org/2000/svg">
<path d="M26.0306 26.7908C27.4586 26.2308 28.8446 25.5308 30.1886 24.6908C31.5326 23.8228 32.7786 22.7308 33.9266 21.4148H36.3626V44.4728H41.2766V47.4128H27.2906V44.4728H32.9186V26.2448C32.6106 26.5248 32.2326 26.8188 31.7846 27.1268C31.3646 27.4068 30.8886 27.6868 30.3566 27.9668C29.8526 28.2468 29.3206 28.5128 28.7606 28.7648C28.2006 29.0168 27.6546 29.2268 27.1226 29.3948L26.0306 26.7908Z" fill="black"/>
<path d="M33.4206 65.4928C51.0937 65.4928 65.4206 51.1659 65.4206 33.4928C65.4206 15.8197 51.0937 1.4928 33.4206 1.4928C15.7475 1.4928 1.42059 15.8197 1.42059 33.4928C1.42059 51.1659 15.7475 65.4928 33.4206 65.4928Z" stroke="black" stroke-width="2"/>
</svg>
