<svg width="67" height="67" viewBox="0 0 67 67" fill="none" xmlns="http://www.w3.org/2000/svg">
<path d="M40.1779 27.8574C40.1779 28.7534 39.9959 29.6214 39.6319 30.4614C39.2959 31.3014 38.8339 32.1274 38.2459 32.9394C37.6859 33.7514 37.0419 34.5494 36.3139 35.3334C35.5859 36.1174 34.8439 36.8874 34.0879 37.6434C33.6679 38.0634 33.1779 38.5674 32.6179 39.1554C32.0579 39.7434 31.5259 40.3454 31.0219 40.9614C30.5179 41.5774 30.0979 42.1794 29.7619 42.7674C29.4259 43.3554 29.2579 43.8594 29.2579 44.2794H41.2279V47.2194H25.4779C25.4499 47.0794 25.4359 46.9394 25.4359 46.7994C25.4359 46.6314 25.4359 46.4774 25.4359 46.3374C25.4359 45.1614 25.6319 44.0694 26.0239 43.0614C26.4159 42.0534 26.9199 41.1014 27.5359 40.2054C28.1519 39.3094 28.8379 38.4694 29.5939 37.6854C30.3779 36.8734 31.1479 36.0894 31.9039 35.3334C32.5199 34.7174 33.1079 34.1154 33.6679 33.5274C34.2559 32.9394 34.7599 32.3514 35.1799 31.7634C35.6279 31.1754 35.9779 30.5734 36.2299 29.9574C36.5099 29.3134 36.6499 28.6554 36.6499 27.9834C36.6499 27.2274 36.5239 26.5834 36.2719 26.0514C36.0479 25.5194 35.7259 25.0854 35.3059 24.7494C34.9139 24.3854 34.4519 24.1194 33.9199 23.9514C33.3879 23.7834 32.8139 23.6994 32.1979 23.6994C31.4699 23.6994 30.7979 23.7974 30.1819 23.9934C29.5939 24.1894 29.0619 24.4274 28.5859 24.7074C28.1379 24.9874 27.7459 25.2674 27.4099 25.5474C27.0739 25.7994 26.8219 26.0094 26.6539 26.1774L24.9319 23.7414C25.1559 23.4894 25.4919 23.1814 25.9399 22.8174C26.3879 22.4534 26.9199 22.1174 27.5359 21.8094C28.1799 21.4734 28.8939 21.1934 29.6779 20.9694C30.4619 20.7454 31.3019 20.6334 32.1979 20.6334C34.9139 20.6334 36.9159 21.2634 38.2039 22.5234C39.5199 23.7554 40.1779 25.5334 40.1779 27.8574Z" fill="black"/>
<path d="M33.0779 65.2994C50.751 65.2994 65.0779 50.9725 65.0779 33.2994C65.0779 15.6263 50.751 1.29937 33.0779 1.29937C15.4048 1.29937 1.07791 15.6263 1.07791 33.2994C1.07791 50.9725 15.4048 65.2994 33.0779 65.2994Z" stroke="black" stroke-width="2"/>
</svg>
