<svg width="67" height="67" viewBox="0 0 67 67" fill="none" xmlns="http://www.w3.org/2000/svg">
<path d="M31.4419 44.5059C33.6539 44.5059 35.2219 44.0719 36.1459 43.2039C37.0979 42.3079 37.5739 41.1179 37.5739 39.6339C37.5739 38.6819 37.3779 37.8839 36.9859 37.2399C36.5939 36.5959 36.0759 36.0779 35.4319 35.6859C34.7879 35.2939 34.0459 35.0139 33.2059 34.8459C32.3659 34.6779 31.4839 34.5939 30.5599 34.5939H29.6779V31.7799H30.8959C31.5119 31.7799 32.1419 31.7239 32.7859 31.6119C33.4579 31.4719 34.0599 31.2479 34.5919 30.9399C35.1519 30.6039 35.5999 30.1559 35.9359 29.5959C36.2719 29.0359 36.4399 28.3219 36.4399 27.4539C36.4399 26.0259 35.9919 25.0179 35.0959 24.4299C34.2279 23.8139 33.2059 23.5059 32.0299 23.5059C30.8259 23.5059 29.8039 23.6879 28.9639 24.0519C28.1239 24.3879 27.4239 24.7379 26.8639 25.1019L25.5199 22.4559C26.1079 22.0359 26.9899 21.6019 28.1659 21.1539C29.3699 20.6779 30.6999 20.4399 32.1559 20.4399C33.5279 20.4399 34.7039 20.6079 35.6839 20.9439C36.6639 21.2799 37.4619 21.7559 38.0779 22.3719C38.7219 22.9879 39.1979 23.7159 39.5059 24.5559C39.8139 25.3679 39.9679 26.2639 39.9679 27.2439C39.9679 28.6159 39.6039 29.7779 38.8759 30.7299C38.1759 31.6819 37.2659 32.4099 36.1459 32.9139C37.4899 33.3059 38.6519 34.0759 39.6319 35.2239C40.6119 36.3439 41.1019 37.8419 41.1019 39.7179C41.1019 40.8379 40.9059 41.8879 40.5139 42.8679C40.1499 43.8199 39.5759 44.6459 38.7919 45.3459C38.0359 46.0459 37.0419 46.5919 35.8099 46.9839C34.6059 47.3759 33.1639 47.5719 31.4839 47.5719C30.8399 47.5719 30.1679 47.5159 29.4679 47.4039C28.7959 47.3199 28.1659 47.1939 27.5779 47.0259C26.9899 46.8859 26.4579 46.7459 25.9819 46.6059C25.5339 46.4379 25.2119 46.3119 25.0159 46.2279L25.6879 43.2459C26.1359 43.4699 26.8499 43.7359 27.8299 44.0439C28.8099 44.3519 30.0139 44.5059 31.4419 44.5059Z" fill="black"/>
<path d="M33.0779 65.1059C50.751 65.1059 65.0779 50.7791 65.0779 33.1059C65.0779 15.4328 50.751 1.10594 33.0779 1.10594C15.4048 1.10594 1.07791 15.4328 1.07791 33.1059C1.07791 50.7791 15.4048 65.1059 33.0779 65.1059Z" stroke="black" stroke-width="2"/>
</svg>
